<svg version="1" xmlns="http://www.w3.org/2000/svg" width="682.667" height="682.667" viewBox="0 0 512.000000 512.000000"><path d="M10 89c0 .3.9 3.3 1.9 6.6 2.7 8.1 6.2 20.1 6.6 22.2.2.9.4 1.8.5 1.9.2.2.4.7.5 1.3.1.5.4 1.2.5 1.5.1.3.3.8.4 1.2.2.5.9 2.8 1.6 5.3.7 2.5 1.4 4.7 1.5 5 0 .3.9 3.2 1.9 6.5 1 3.3 1.9 6.4 2.1 7 .1.5.5 1.7.8 2.5.3.8 2 6.4 3.7 12.5 1.7 6 3.5 12.1 4 13.5.5 1.4 1.8 5.6 2.9 9.5 1.1 3.8 3.7 12.4 5.6 19 2 6.6 3.8 12.7 4 13.5.3 1.4 4.8 16.3 10 33.5 1.3 4.4 3.8 12.6 5.5 18.2 6.9 23.5 9.2 31 10.4 34.8 1.5 4.4 3.8 12.4 4.2 14.1.1.9 2.8 9.7 7.5 25 .5 1.7 1.1 4 1.3 5 .3 1 .9 3 1.4 4.4.5 1.4 1 2.7 1 3 0 .3.3 1.2.6 2s1.6 5.3 3 10 4.8 16.1 7.6 25.5c2.8 9.3 5.3 17.9 5.6 19 .7 2.9 1 3.8 1.7 5.5.3.8 2.2 7.1 4.2 14s4.8 16.2 6.1 20.7l2.5 8.3h77.5l1.4-6.3c.7-3.4 1.5-6.7 1.6-7.2.4-1.2 3.4-14.1 4-17.2.2-1.2.8-3.3 1.3-4.5.5-1.3.9-2.6.9-3.1.1-1.3 1.6-8.1 3.3-14.7.6-2.5 1.2-5.2 1.4-6 .1-.8.7-3.3 1.3-5.5.6-2.2 1.3-5.1 1.5-6.5.3-1.4 1-4.5 1.7-7s1.4-5.6 1.6-7c.3-1.4.7-3.2 1.1-4 .3-.8.7-2.4.8-3.6.2-1.1.8-3.8 1.4-6 .5-2.1 1.2-5 1.5-6.4.2-1.4 2.1-9.3 4.1-17.5 2-8.3 3.9-15.8 4.1-16.8.2-1 .5-2.6.8-3.5.3-.9.7-2.8 1-4.2.9-4.7 1.5-7.3 2.5-10.4.5-1.7 1.9-7.4 3.1-12.6 1.2-5.2 3.7-15.9 5.5-23.7 1.9-7.8 3.6-15.2 3.9-16.5 1.1-6.1 3.8-16.9 4.1-16.6.2.2 1.5 4.6 2.8 9.8 1.4 5.2 3.5 13.1 4.7 17.5 2.6 9.8 9.1 34.5 9.6 36.5.2.8 1.3 5.1 2.5 9.5 1.1 4.4 2.2 8.8 2.4 9.8.2.9.6 2.1.9 2.5.3.5.7 1.9 1 3.3.2 1.3 2.5 10.3 5.1 19.9 8.9 33.5 12.6 47.5 14 53 .7 3 1.9 7.2 2.5 9.4 1 3.4 1.4 5 2.3 9.1.2.5.6 1.6 1 2.2.5.7.6 1.3.3 1.3-.2 0 .2 2.4 1 5.2.8 2.9 1.6 6 1.8 6.8.2.8 1.1 4.2 2 7.5.9 3.3 1.8 6.7 2 7.5.2.8 1.2 4.2 2.1 7.5.9 3.3 1.7 6.6 1.7 7.2.1 1 8.6 1.3 38.8 1.3h38.7l1.1-3.7c4-12.9 12.4-41.1 12.7-42.8.3-1.1.9-3.1 1.4-4.5.5-1.4 2.4-7.5 4.1-13.5 1.8-6.1 3.9-13 4.7-15.5.8-2.5 1.6-5.2 1.8-6 .2-.8 2.9-9.8 6-20s5.9-19.4 6.2-20.5c.3-1.1 2.3-7.9 4.5-15 2.2-7.2 4.1-13.5 4.2-14 .1-.6 1.2-4.2 2.4-8 4.3-13.9 12.4-41 12.7-42.7.2-.9.9-2.6 1.5-3.7.6-1.2.8-2.1.6-2.1-.3 0-.1-1.2.5-2.8.6-1.5 1.2-3.4 1.4-4.2.3-1.3 2-7 11.1-37 1.5-4.7 3.2-10.5 4-13 .7-2.5 2.4-8.1 3.8-12.5 2.1-6.8 4.7-15.8 5.1-17.5.1-.5 2.6-8.9 7-23 1.2-4.1 3.3-10.9 4.5-15 1.2-4.1 2.9-9.5 3.7-12 .8-2.5 1.6-5.2 1.8-6.1.3-1.3 1.2-4.6 4.5-15l.8-2.6h-40.5c-22.2 0-40.2.2-39.9.4.3.3-.1 2.2-.9 4.2s-5.3 16.9-10 33.1c-4.7 16.2-9.5 32.6-10.6 36.5-1.1 3.8-2.5 8.1-3 9.5-.5 1.4-1 3.4-1.2 4.5-.2 1.1-.7 2.7-1 3.5-.3.8-1.8 5.5-3.2 10.5l-4 14c-.9 2.7-1.7 5.7-1.9 6.5-.2.8-1.6 5.5-3.1 10.5-2.6 8.8-5.3 18-5.9 20-.1.5-.8 3-1.5 5.5s-1.9 6.4-2.6 8.7c-.8 2.3-1.6 5.2-1.9 6.5-.3 1.3-1.8 6.8-3.5 12.3-4.6 15.2-12.1 40.4-13.6 46-.8 2.7-3.7 12.6-6.5 22-2.8 9.3-5.2 17.7-5.4 18.5-.3.8-3 10-6.1 20.5-3 10.4-5.8 19.8-6 20.8-.3.9-.7 2.5-1 3.5-.2.9-1.3 4.6-2.4 8.2-1.2 3.6-2.1 7.3-2.1 8.2 0 1-.4 1.8-.8 1.8-.5 0-.9.6-.9 1.2 0 .7-1.2 5.6-2.8 10.8-1.5 5.2-2.9 10.2-3 11-.2.8-.4 1.7-.5 2-.1.3-.2.8-.1 1.2 0 .5-.4.8-1 .8s-.8-.8-.5-1.8c.5-1.7 1.5-6.6 2.1-11.2.2-1.4.6-4.1 1-6 1.1-6.2 1.6-9.4 2.1-12.3.2-1.5.6-3.9.8-5.5.3-1.5.7-4.2 1-6 .3-1.7.9-4.7 1.2-6.5.5-3.2.8-5 1.8-11.7.3-1.9.8-4.6 1.1-6 .3-1.4.8-4.5 1.1-7 .3-2.5.7-5.2.9-6 .3-.8.7-3.3 1-5.5.4-2.2 1.3-7.6 2-12 .8-4.4 1.7-9.7 2.1-11.9.3-2.1.8-4.8 1-6 .2-1.1.7-4 1-6.2.2-2.3.7-5.3 1-6.5.2-1.3.7-4 1-5.9.3-1.9.7-4.6 1-6 .2-1.4.7-4.1 1-6 .3-1.9.7-4.6 1-6 .2-1.4.7-4.1 1-6 .3-1.9.7-4.6 1-6 .2-1.4.7-4.3 1-6.5.3-2.2.6-4.2.7-4.5.1-.9-1.4-7.4-2.9-11.7-.7-2.3-1.6-5.2-1.8-6.5-.3-1.3-1.4-5.5-2.6-9.3-1.2-3.9-2.2-7.5-2.4-8-.1-.6-.8-3-1.5-5.5-.8-2.5-1.4-5-1.5-5.5-.1-.6-1-3.7-2-7s-2-6.7-2.2-7.5c-.2-.8-1.5-5.6-3-10.5-1.4-5-2.7-9.5-2.8-10-.1-.6-.7-2.6-1.3-4.5-2-6.4-4.3-14.5-4.8-16.5-.2-1.1-3-10.8-6.1-21.5-3-10.7-5.7-20.2-5.9-21-.2-.8-.8-2.6-1.3-4s-1-3-1.1-3.5c-.1-.6-.3-1.7-.5-2.5-.7-2.4-5.5-18.9-7.7-26.1l-2-6.6h-67.8l-1.1 3.1c-.6 1.7-1 3.1-1 3.1s-.8 2.5-1.8 5.5c-1.1 3-2 5.9-2.1 6.5-.3 1.5-4.1 14.8-4.8 16.5-.8 2-1 2.5-2.6 9-.8 3-3.1 10.9-5.1 17.5-6 19.7-8.3 27.4-12 40-1.9 6.6-6 20.5-9.2 31-3.1 10.4-6 20.3-6.4 22-.5 1.6-1.8 6.1-3 10-4.4 14.5-6.9 23.7-6.5 24.8.4 1.1 1 4.6 2 11.2.2 1.1.6 3.3.9 5 .4 1.6.9 4.6 1.2 6.5.3 1.9.7 4.2.9 5 .2.8.7 3.5 1 6 .3 2.5 1 6.7 1.5 9.5 1.8 9.7 2.7 14.8 3.4 19.5.2.8.6 2.8.9 4.5.4 1.6.9 4.6 1.1 6.5.3 1.9 1.4 8.7 2.6 15 1.1 6.3 2.2 12.6 2.4 14 .3 1.4 1.8 10.6 3.6 20.5 1.7 9.9 3.3 18.9 3.4 20 .2 1.1.6 3.3.9 5 .3 1.6.9 4.6 1.1 6.5.3 1.9.8 4.5 1 5.6.2 1.2.7 3.7 1 5.5.3 1.9.8 4.6 1.1 6.1 1.1 5.8-.5 2.4-3.5-7.5-1.8-5.6-3.3-10.7-3.4-11.2-.3-1.4-3.5-12.3-5.1-17-1.2-3.5-3.7-12.1-3.9-13.5-.1-.3-.4-1-.7-1.5-.6-.9-1.5-4.4-2.4-8.5-.2-.8-1-3.5-1.9-6-1.6-4.7-11.1-36-12.8-42-.5-1.9-1.9-6.4-3.1-10-1.1-3.6-2.1-7-2.2-7.5 0-.6-.8-3.3-1.7-6-1.8-5.5-7-22.4-7.4-24-.1-.6-2.8-9.3-5.9-19.5-3.1-10.2-5.8-19.3-6-20.3-.2-.9-.7-2.2-1-2.7-.3-.5-.8-1.8-1-2.7-.3-1.7-3.3-11.8-9.1-30.8-1.4-4.4-2.7-8.7-2.9-9.5-.2-.8-1.3-4.7-2.5-8.5-1.2-3.9-3.4-11.3-5-16.5-1.6-5.2-3.8-12.7-5-16.5-1.2-3.9-2.5-8.4-3-10-.5-1.7-2.9-9.8-5.5-18-2.5-8.3-4.8-15.5-4.9-16-.2-.6-.5-1.7-.8-2.5-.3-.8-1.3-4-2.1-7-.9-3-2.5-8.7-3.7-12.5-1.2-3.9-2.4-8.2-2.7-9.8-.3-1.7-1.3-2.9-2.7-3.2-3.3-.7-74.6-.2-74.6.5z"/></svg>