<svg version="1" xmlns="http://www.w3.org/2000/svg" width="682.667" height="682.667" viewBox="0 0 512.000000 512.000000"><path d="M9.9 69.1c-.6.3-.5 1.7 0 3.5.5 1.6 2.1 6.7 3.5 11.4s5.9 19.7 10 33.5c11.5 38.5 24.4 81.6 28.6 96 2.1 7.1 7.9 26.7 13 43.5 5 16.8 13 43.3 17.6 59 4.7 15.7 9.8 32.8 11.4 38 3.3 10.9 7.7 25.7 11.9 39.7 1.6 5.4 4.1 13.8 5.6 18.8 1.4 4.9 4.2 14.1 6.1 20.2l3.5 11.3H198.8l1.6-6.8c.9-3.7 1.8-7.6 2.1-8.7.2-1.1 1.3-6.1 2.5-11 1.2-5 2.3-9.7 2.5-10.5.2-.8 1.9-8 3.9-16 1.9-8 3.7-15.6 4-17 .2-1.4 2.2-9.9 4.4-19 5.4-22 8.3-34.1 8.7-36.5.3-1.1.9-3.8 1.5-6 .5-2.2 2.6-10.8 4.5-19 1.9-8.3 3.8-16.1 4.2-17.5.3-1.4.7-3.2.9-4 .2-.8 1.9-8.3 3.9-16.5 2-8.3 3.9-16.1 4.1-17.5.3-1.4 1.4-6.1 2.6-10.5 1.1-4.4 2.1-8.5 2.2-9.2.5-3 1.5-2.1 2.5 2.4.6 2.6 2.9 11.5 5.1 19.8 2.2 8.2 6 22.8 8.5 32.4 5.3 20.3 7.3 27.7 15.5 58.6 3.4 12.6 6.6 24.6 7 26.5.5 1.9 2.4 9.3 4.3 16.5 12.7 47.8 17.7 67 17.7 68.2 0 1.1 6.9 1.3 39.1 1.1l39.1-.3 4-13c2.1-7.2 4.9-16.2 6-20 1.2-3.9 2.3-7.5 2.4-8 .2-.6 1.8-6.2 3.7-12.5 2-6.3 7.2-23.7 11.7-38.5 4.5-14.9 8.5-28.4 9-30 .4-1.7 3.8-12.9 7.5-25 3.6-12.1 9.3-31 12.6-42 3.3-11 6.7-22 7.5-24.5 1.7-5.5 11.2-37.1 12.6-42 .5-1.9 4.1-13.6 7.8-26s7.3-24.1 7.8-26c.9-3.2 5.8-19.4 14.3-47.5 1.7-5.5 3.7-12 4.5-14.4.7-2.5 1.2-4.6 1-4.9-.6-.5-79.5-.6-80.1 0-.2.2-2.7 8.2-5.5 17.8-10.8 37-14.3 48.8-16.5 56.5-1.3 4.4-5.3 18.1-9 30.5-3.7 12.4-7.5 25.4-8.5 29-1 3.6-6 20.4-11 37.5-13.3 45.3-25.6 87.3-34.5 117.5-3.1 10.7-6.7 23.1-8.1 27.5-1.3 4.4-5.3 17.9-8.9 30-3.6 12.1-6.3 20.2-6 18 1.2-9.9 1.6-13.4 2.5-18.5.5-3 1.2-7.5 1.5-10 .3-2.5.7-5.6 1-7 .2-1.4.7-4.3 1-6.5.3-2.2 1-6.9 1.6-10.5.6-3.6 1.3-8.1 1.5-10 .3-1.9.7-4.6.9-6 .3-1.4.7-4.5 1-7 .3-2.5.8-5.4 1-6.5.3-1.6 3.6-23.9 5-33.5.2-1.4.6-3.9.9-5.5.2-1.7 1-6.6 1.6-11 .6-4.4 1.3-9.1 1.5-10.5 1.1-6.6 4.6-30.3 5-32.7.2-1.6.6-4.8 1-7.3.4-3.4-.1-6.9-2.4-14.5-1.6-5.5-5-17-7.5-25.5-5.2-18.1-14.9-51.2-20.1-69-5.8-19.7-10-34.1-15.5-53.5-2.9-9.9-5.6-18.4-6-18.8-.7-.7-69-1.6-69-.9 0 .1-2.3 8-5.1 17.5-2.8 9.4-6.2 21-7.6 25.7-3 10.4-2.7 9.4-15.8 53.5-5.8 19.8-11.7 39.6-13 44-1.3 4.4-4.2 14.3-6.6 22-2.3 7.7-4.1 14.4-4.1 15 0 1.5 1.2 13.7 1.7 16.5.5 3.1 1.3 9.2 2 14.5.3 2.2.9 7.6 1.5 12s1.2 9.8 1.5 12c1 7.8 2.6 20 3 23 .2 1.6.7 5.2 1 8 .3 2.7.8 6.3 1 8 .3 1.6.8 5.2 1.1 8 .8 7 .8 7 4.3 27.5 1.8 10.2 3.4 19.8 3.7 21.5.2 1.6.7 4.1.9 5.5.3 1.4.8 3.6 1 5 .3 1.4.8 4.1 1.1 6 .3 1.9.7 4.2.9 5 .2.8.7 3.5 1 6 .4 2.5 1 6.2 1.5 8.3 1.8 8.1-.6 2-5.6-14.6-13.9-46-25-82.7-29.6-97.7-2.7-9.1-5.1-17-5.2-17.5-.1-.6-1.7-5.7-3.5-11.5-1.7-5.8-4.3-14.3-5.7-19-1.4-4.7-4.3-14.1-6.4-21-4.9-15.9-19-62.5-20.1-66.5-.4-1.7-2.6-8.9-4.8-16-2.2-7.2-7.2-23.6-11.1-36.5-3.9-12.9-8.4-27.8-10-33-1.6-5.2-4.3-14.2-6.1-20-1.8-5.8-3.3-10.7-3.5-10.9-.5-.6-74.5-.6-75.5 0z"/></svg>